<?xml version="1.0" encoding="UTF-8"?>
<svg width="300px" height="300px" viewBox="0 0 300 300" version="1.1" xmlns="http://www.w3.org/2000/svg" xmlns:xlink="http://www.w3.org/1999/xlink">
    <!-- Generator: Sketch 50.2 (55047) - http://www.bohemiancoding.com/sketch -->
    <title>icon</title>
    <desc>Created with Sketch.</desc>
    <defs>
        <linearGradient x1="77.8574716%" y1="91.135681%" x2="34.8737245%" y2="20.6881985%" id="linearGradient-1">
            <stop stop-color="#00CDAC" offset="0%"></stop>
            <stop stop-color="#02AAB0" offset="100%"></stop>
        </linearGradient>
    </defs>
    <g id="icon" stroke="none" stroke-width="1" fill="none" fill-rule="evenodd">
        <g id="gradient-mint" transform="translate(150.000000, 150.000000) rotate(-180.000000) translate(-150.000000, -150.000000) " fill="url(#linearGradient-1)">
            <rect x="0" y="0" width="300" height="300"></rect>
        </g>
        <g id="OkHi-:-)" transform="translate(67.000000, 66.000000)" fill="#FFFFFF">
            <path d="M23.4789082,20.6671384 C23.4789082,17.7538457 23.9747926,15.1147847 24.9665764,12.7498765 C25.9583601,10.3849682 27.3416166,8.37139897 29.1163875,6.70910838 C30.8911584,5.04681779 32.9964923,3.77012921 35.4324524,2.87900436 C37.8684124,1.98787951 40.5305288,1.54232376 43.4188815,1.54232376 C46.3072341,1.54232376 48.9693505,1.98787951 51.4053105,2.87900436 C53.8412706,3.77012921 55.9466045,5.04681779 57.7213754,6.70910838 C59.4961463,8.37139897 60.8794028,10.3849682 61.8711866,12.7498765 C62.8629703,15.1147847 63.3588547,17.7538457 63.3588547,20.6671384 C63.3588547,23.5804312 62.8629703,26.2194922 61.8711866,28.5844004 C60.8794028,30.9493087 59.4961463,32.9628779 57.7213754,34.6251685 C55.9466045,36.2874591 53.8412706,37.5641477 51.4053105,38.4552725 C48.9693505,39.3463974 46.3072341,39.7919531 43.4188815,39.7919531 C40.5305288,39.7919531 37.8684124,39.3463974 35.4324524,38.4552725 C32.9964923,37.5641477 30.8911584,36.2874591 29.1163875,34.6251685 C27.3416166,32.9628779 25.9583601,30.9493087 24.9665764,28.5844004 C23.9747926,26.2194922 23.4789082,23.5804312 23.4789082,20.6671384 L23.4789082,20.6671384 Z M31.9351272,20.6671384 C31.9351272,22.3808401 32.2048188,23.9488536 32.7442099,25.3712259 C33.2836011,26.7935983 34.0578767,28.027445 35.0670602,29.072803 C36.0762436,30.118161 37.2855057,30.932157 38.6948826,31.5148156 C40.1042594,32.0974742 41.67891,32.3887991 43.4188815,32.3887991 C45.1588529,32.3887991 46.7335035,32.0974742 48.1428804,31.5148156 C49.5522572,30.932157 50.7615193,30.118161 51.7707027,29.072803 C52.7798862,28.027445 53.5541619,26.7935983 54.093553,25.3712259 C54.6329442,23.9488536 54.9026357,22.3808401 54.9026357,20.6671384 C54.9026357,18.9877108 54.6329442,17.4282657 54.093553,15.9887564 C53.5541619,14.549247 52.7798862,13.3068319 51.7707027,12.2614739 C50.7615193,11.2161159 49.5522572,10.4021199 48.1428804,9.8194613 C46.7335035,9.23680274 45.1588529,8.94547784 43.4188815,8.94547784 C41.67891,8.94547784 40.1042594,9.23680274 38.6948826,9.8194613 C37.2855057,10.4021199 36.0762436,11.2161159 35.0670602,12.2614739 C34.0578767,13.3068319 33.2836011,14.549247 32.7442099,15.9887564 C32.2048188,17.4282657 31.9351272,18.9877108 31.9351272,20.6671384 L31.9351272,20.6671384 Z M66.1601948,0 L73.9900272,0 L73.9900272,23.751786 L82.6550418,13.8809139 L92.2596362,13.8809139 L82.1852518,25.1398774 L92.5206306,38.8665589 L82.6550418,38.8665589 L74.094425,26.219504 L73.9900272,26.219504 L73.9900272,38.8665589 L66.1601948,38.8665589 L66.1601948,0 Z M99.793675,2.46771802 L107.936701,2.46771802 L106.005342,16.0401672 L121.821604,16.0401672 L123.752962,2.46771802 L131.895988,2.46771802 L126.728299,38.8665589 L118.585273,38.8665589 L120.829825,23.1348565 L105.013563,23.1348565 L102.769011,38.8665589 L94.6259856,38.8665589 L99.793675,2.46771802 Z M133.427155,13.8809139 L141.256988,13.8809139 L137.707464,38.8665589 L129.877631,38.8665589 L133.427155,13.8809139 Z M133.896945,6.01506268 C134.001343,5.39813009 134.210137,4.81548027 134.523332,4.26709575 C134.836527,3.71871122 135.228014,3.24745034 135.697807,2.85329896 C136.167599,2.45914759 136.698282,2.14211754 137.289873,1.90219931 C137.881463,1.66228108 138.490444,1.54232376 139.116833,1.54232376 C140.369613,1.54232376 141.370081,1.97931113 142.118269,2.85329896 C142.866457,3.7272868 143.153548,4.7811975 142.979551,6.01506268 C142.909952,6.63199527 142.718558,7.21464509 142.405363,7.76302962 C142.092168,8.31141414 141.700681,8.78267502 141.230888,9.1768264 C140.761096,9.57097778 140.230413,9.88800783 139.638822,10.1279261 C139.047232,10.3678443 138.438251,10.4878016 137.811861,10.4878016 C137.185472,10.4878016 136.61129,10.3678443 136.089298,10.1279261 C135.567307,9.88800783 135.13232,9.57097778 134.784326,9.1768264 C134.436332,8.78267502 134.18404,8.31141414 134.027442,7.76302962 C133.870845,7.21464509 133.827346,6.63199527 133.896945,6.01506268 L133.896945,6.01506268 Z" id="OkHi-logo"></path>
            <path d="M0,76.4058437 C0,73.7340446 2.14937589,71.5681234 4.80076541,71.5681234 C7.45215493,71.5681234 9.60153082,73.7340446 9.60153082,76.4058437 C9.60153082,117.150781 42.3795131,150.181079 82.8132033,150.181079 C123.246894,150.181079 156.024876,117.150781 156.024876,76.4058437 C156.024876,73.7340446 158.174252,71.5681234 160.825641,71.5681234 C163.477031,71.5681234 165.626407,73.7340446 165.626407,76.4058437 C165.626407,122.494379 128.549673,159.856519 82.8132033,159.856519 C37.076734,159.856519 0,122.494379 0,76.4058437 Z" id="white-copy" fill-opacity="0.8" fill-rule="nonzero"></path>
        </g>
    </g>
</svg>